<?xml version="1.0" encoding="utf-8"?>
<!-- Generator: Adobe Illustrator 16.0.0, SVG Export Plug-In . SVG Version: 6.00 Build 0)  -->
<!DOCTYPE svg PUBLIC "-//W3C//DTD SVG 1.1//EN" "http://www.w3.org/Graphics/SVG/1.1/DTD/svg11.dtd">
<svg version="1.1" id="Layer_1" xmlns="http://www.w3.org/2000/svg" xmlns:xlink="http://www.w3.org/1999/xlink" x="0px" y="0px"
	 width="180.063px" height="146.667px" viewBox="0 0 180.063 146.667" enable-background="new 0 0 180.063 146.667"
	 xml:space="preserve">
<g>
	<g>
		<path fill="#313131" d="M59.195,118.208c0.192,1.165-0.152,2.301-1.031,3.407c-0.879,1.105-1.907,1.717-3.084,1.832
			c-1.177,0.116-2.451-0.37-3.821-1.46l-2.361-1.877l5.654-7.113l2.442,1.941C58.27,115.953,59.003,117.042,59.195,118.208z
			 M56.929,120.682c1.294-1.628,1.009-3.184-0.857-4.667l-1.201-0.954l-3.875,4.874l1.333,1.06c0.862,0.686,1.685,1.005,2.469,0.958
			C55.582,121.907,56.292,121.483,56.929,120.682z"/>
		<path fill="#313131" d="M57.233,126.44l2.529-4.573c0.646-1.168,1.433-1.892,2.359-2.171c0.927-0.28,1.92-0.127,2.978,0.458
			c1.058,0.585,1.715,1.34,1.971,2.264c0.256,0.925,0.07,1.955-0.559,3.093l-2.567,4.642l-1.354-0.749l1.088-1.968l-4.016-2.221
			l-1.089,1.968L57.233,126.44z M61.137,122.552l-0.78,1.41l4.016,2.222l0.749-1.354c0.407-0.735,0.543-1.402,0.409-2.002
			c-0.134-0.599-0.516-1.072-1.146-1.421c-0.629-0.348-1.227-0.426-1.794-0.234C62.024,121.364,61.539,121.824,61.137,122.552z"/>
		<path fill="#313131" d="M74.21,126.431c-0.198-0.575-0.632-0.98-1.303-1.216s-1.301-0.197-1.893,0.114
			c-0.591,0.312-1.023,0.855-1.296,1.632l-1.71,4.869l-1.447-0.508l3.011-8.574l1.447,0.509l-0.284,0.81
			c0.453-0.218,0.932-0.332,1.437-0.343c0.504-0.012,0.973,0.059,1.407,0.211c0.948,0.333,1.623,0.942,2.024,1.827
			c0.401,0.885,0.397,1.908-0.01,3.069l-1.77,5.041l-1.448-0.508l1.71-4.87C74.366,127.694,74.408,127.005,74.21,126.431z"/>
		<path fill="#313131" d="M80.724,127.269c-0.439-0.082-0.815-0.06-1.13,0.067s-0.506,0.371-0.573,0.733s0.022,0.665,0.267,0.909
			c0.246,0.244,0.806,0.562,1.68,0.954s1.507,0.832,1.897,1.318c0.39,0.487,0.512,1.12,0.367,1.899
			c-0.146,0.78-0.557,1.358-1.235,1.734s-1.495,0.475-2.449,0.297c-1.397-0.26-2.548-0.972-3.45-2.137l1.158-0.961
			c0.757,0.952,1.621,1.519,2.592,1.699c0.486,0.091,0.891,0.059,1.215-0.098c0.325-0.155,0.519-0.405,0.583-0.751
			c0.064-0.345-0.02-0.639-0.252-0.88c-0.233-0.242-0.663-0.502-1.289-0.782c-0.627-0.28-1.098-0.518-1.415-0.713
			s-0.586-0.425-0.811-0.687c-0.454-0.499-0.604-1.162-0.449-1.988c0.154-0.826,0.573-1.407,1.257-1.743
			c0.684-0.335,1.469-0.42,2.355-0.255c0.571,0.106,1.12,0.306,1.647,0.598s0.964,0.646,1.309,1.063l-1.017,0.987
			c-0.22-0.287-0.542-0.55-0.964-0.788C81.594,127.51,81.163,127.351,80.724,127.269z"/>
		<path fill="#313131" d="M88.557,128.255c-1.134-0.06-1.718,0.247-1.754,0.923c-0.046,0.874,0.653,1.35,2.099,1.426l1.233,0.065
			l-0.073,1.376c-0.545-0.029-0.98-0.052-1.305-0.069c-0.325-0.017-0.611-0.023-0.858-0.02c-0.248,0.005-0.433,0.019-0.556,0.042
			c-0.123,0.024-0.275,0.066-0.456,0.126c-0.181,0.06-0.317,0.135-0.409,0.226c-0.238,0.239-0.367,0.532-0.385,0.878
			c-0.046,0.874,0.649,1.35,2.085,1.426c0.45,0.023,0.892-0.007,1.326-0.093s0.776-0.195,1.026-0.33l0.343,1.398
			c-0.828,0.391-1.807,0.556-2.936,0.495c-1.129-0.06-1.995-0.344-2.598-0.854c-0.602-0.509-0.88-1.205-0.833-2.088
			c0.053-1.004,0.59-1.718,1.61-2.141c-0.675-0.53-0.989-1.229-0.943-2.094c0.037-0.701,0.355-1.257,0.954-1.668
			c0.599-0.411,1.383-0.591,2.352-0.539c0.398,0.021,0.822,0.087,1.272,0.197s0.814,0.243,1.092,0.396l-0.389,1.438
			C89.839,128.462,89.206,128.29,88.557,128.255z"/>
		<path fill="#313131" d="M92.095,127.114l1.528-0.137l0.396,4.415l3.748-4.787l1.942-0.174l-3.283,4.288l4.146,4.758l-1.813,0.162
			l-3.359-3.692l-1.193,1.543l0.228,2.537l-1.528,0.138L92.095,127.114z"/>
		<path fill="#313131" d="M102.297,135.101l-1.984-8.868l1.497-0.334l1.666,7.446l4.047-0.905l0.318,1.421L102.297,135.101z"/>
		<path fill="#313131" d="M110.987,130.629c0.562,0.304,1.175,0.329,1.838,0.074s1.103-0.683,1.317-1.285
			c0.215-0.602,0.173-1.291-0.125-2.068l-1.801-4.697l1.432-0.549l3.254,8.484l-1.432,0.549l-0.303-0.789
			c-0.375,0.812-0.984,1.38-1.826,1.703c-1.052,0.403-2.04,0.404-2.964,0.002c-0.925-0.402-1.621-1.214-2.09-2.436l-1.825-4.759
			l1.432-0.549l1.801,4.697C109.995,129.785,110.425,130.325,110.987,130.629z"/>
		<path fill="#313131" d="M122.973,127.283l-3.438,2.002l-4.574-7.852l3.055-1.78c0.532-0.31,1.027-0.513,1.487-0.61
			s0.847-0.092,1.16,0.016c0.595,0.195,1.041,0.548,1.337,1.057c0.358,0.614,0.429,1.185,0.214,1.711
			c-0.081,0.188-0.14,0.31-0.177,0.366s-0.106,0.154-0.206,0.293c0.548-0.179,1.063-0.186,1.545-0.021
			c0.482,0.166,0.868,0.495,1.155,0.989c0.319,0.547,0.413,1.14,0.283,1.776C124.658,125.974,124.043,126.659,122.973,127.283z
			 M118.185,123.918l1.685-0.981c0.958-0.559,1.248-1.164,0.869-1.815c-0.218-0.374-0.491-0.576-0.819-0.605
			s-0.736,0.098-1.222,0.381L117,121.885L118.185,123.918z M120.147,127.289l2.078-1.211c0.487-0.283,0.815-0.577,0.983-0.882
			c0.169-0.304,0.129-0.669-0.12-1.096c-0.405-0.696-1.167-0.72-2.282-0.07l-1.909,1.113L120.147,127.289z"/>
		<path fill="#313131" d="M130.793,121.765l-3.092,2.503l-5.717-7.063l2.749-2.225c0.479-0.388,0.937-0.664,1.377-0.83
			c0.439-0.166,0.823-0.22,1.149-0.161c0.618,0.103,1.112,0.382,1.482,0.84c0.447,0.553,0.605,1.105,0.473,1.658
			c-0.052,0.198-0.092,0.328-0.12,0.39c-0.028,0.062-0.081,0.169-0.159,0.321c0.514-0.261,1.022-0.346,1.524-0.256
			s0.933,0.357,1.293,0.802c0.398,0.492,0.581,1.062,0.55,1.713C132.259,120.216,131.756,120.985,130.793,121.765z M125.548,119.169
			l1.516-1.227c0.862-0.698,1.056-1.34,0.582-1.926c-0.272-0.337-0.573-0.495-0.902-0.475c-0.329,0.021-0.712,0.209-1.15,0.563
			l-1.526,1.234L125.548,119.169z M128.002,122.202l1.869-1.514c0.438-0.354,0.717-0.694,0.838-1.021s0.025-0.682-0.285-1.065
			c-0.507-0.627-1.263-0.533-2.267,0.278l-1.718,1.391L128.002,122.202z"/>
	</g>
	<g>
		<path fill="#313131" d="M69.896,24.559l-3.914,1.743L62,17.364l3.479-1.55c0.605-0.27,1.16-0.43,1.663-0.48
			c0.504-0.051,0.917,0,1.241,0.152c0.614,0.277,1.051,0.707,1.309,1.286c0.312,0.699,0.322,1.318,0.03,1.856
			c-0.109,0.191-0.187,0.315-0.233,0.372s-0.131,0.153-0.254,0.289c0.607-0.127,1.16-0.074,1.657,0.159s0.871,0.631,1.122,1.193
			c0.277,0.622,0.309,1.268,0.096,1.935C71.852,23.355,71.114,24.016,69.896,24.559z M65.161,20.4l1.918-0.854
			c1.091-0.486,1.472-1.101,1.141-1.842c-0.19-0.427-0.459-0.675-0.807-0.744c-0.348-0.07-0.799,0.019-1.353,0.266l-1.931,0.86
			L65.161,20.4z M66.87,24.236l2.366-1.054c0.554-0.247,0.939-0.523,1.156-0.829s0.216-0.702,0-1.188
			c-0.353-0.793-1.165-0.906-2.435-0.341l-2.174,0.969L66.87,24.236z"/>
		<path fill="#313131" d="M75.713,13.745c-1.182,0.313-1.679,0.822-1.493,1.526c0.242,0.911,1.116,1.167,2.623,0.767l1.286-0.341
			l0.38,1.435c-0.568,0.15-1.021,0.271-1.36,0.36s-0.633,0.178-0.886,0.265c-0.252,0.086-0.438,0.162-0.555,0.227
			c-0.118,0.065-0.26,0.158-0.426,0.279c-0.166,0.122-0.281,0.244-0.345,0.367c-0.165,0.324-0.2,0.666-0.104,1.026
			c0.242,0.912,1.111,1.169,2.609,0.771c0.469-0.125,0.912-0.303,1.329-0.534c0.417-0.23,0.731-0.457,0.943-0.677l0.813,1.319
			c-0.719,0.674-1.667,1.166-2.845,1.479S75.524,22.322,74.738,22c-0.786-0.323-1.301-0.944-1.545-1.864
			c-0.277-1.047,0.037-1.956,0.942-2.728c-0.867-0.32-1.42-0.932-1.66-1.833c-0.194-0.731-0.052-1.406,0.426-2.025
			s1.222-1.062,2.232-1.331c0.415-0.11,0.871-0.183,1.369-0.218c0.498-0.036,0.915-0.021,1.25,0.044l0.077,1.603
			C77.096,13.533,76.39,13.566,75.713,13.745z"/>
		<path fill="#313131" d="M89.034,13.544c0.159,1.606-0.442,2.688-1.804,3.245l2.899,3.286l-2.09,0.207l-2.65-3.044l-2.16,0.213
			l0.324,3.274l-1.644,0.162l-0.962-9.738l3.622-0.358c1.486-0.146,2.575-0.001,3.265,0.438S88.924,12.439,89.034,13.544z
			 M86.983,15.139c0.306-0.32,0.427-0.799,0.364-1.436c-0.063-0.636-0.278-1.056-0.645-1.259c-0.367-0.202-0.992-0.261-1.874-0.173
			l-2.09,0.206l0.344,3.483l2.048-0.203C86.059,15.667,86.677,15.46,86.983,15.139z"/>
		<path fill="#313131" d="M96.495,12.104c-0.986-0.079-1.84,0.174-2.561,0.758c-0.721,0.583-1.123,1.398-1.207,2.445
			s0.134,1.899,0.652,2.559c0.519,0.66,1.278,1.029,2.278,1.109c1,0.08,1.853-0.25,2.558-0.989l0.155-1.94l1.647,0.132l-0.375,4.703
			l-1.647-0.132l0.066-0.823c-0.825,0.486-1.708,0.692-2.647,0.617c-1.424-0.113-2.542-0.674-3.356-1.68
			c-0.814-1.006-1.163-2.239-1.046-3.699c0.117-1.461,0.709-2.636,1.777-3.524c1.068-0.888,2.305-1.276,3.709-1.164
			s2.54,0.615,3.405,1.508l-0.979,1.186c-0.355-0.355-0.721-0.612-1.097-0.769S97.007,12.145,96.495,12.104z"/>
		<path fill="#313131" d="M106.517,13.857c-1.187-0.296-1.868-0.092-2.044,0.615c-0.229,0.914,0.413,1.561,1.925,1.938l1.29,0.322
			l-0.36,1.44c-0.57-0.143-1.025-0.257-1.365-0.342c-0.34-0.085-0.641-0.15-0.903-0.197c-0.263-0.046-0.461-0.069-0.596-0.069
			s-0.304,0.013-0.507,0.039c-0.204,0.026-0.364,0.077-0.479,0.154c-0.301,0.204-0.497,0.487-0.587,0.849
			c-0.229,0.915,0.409,1.561,1.912,1.936c0.471,0.118,0.944,0.177,1.421,0.176s0.861-0.047,1.153-0.138l0.075,1.548
			c-0.956,0.242-2.024,0.216-3.206-0.08c-1.182-0.295-2.039-0.773-2.57-1.437c-0.532-0.661-0.682-1.454-0.451-2.378
			c0.263-1.051,0.977-1.694,2.143-1.932c-0.604-0.7-0.793-1.502-0.567-2.408c0.184-0.733,0.634-1.256,1.352-1.566
			c0.717-0.312,1.583-0.34,2.598-0.087c0.416,0.104,0.851,0.262,1.304,0.471c0.453,0.21,0.811,0.424,1.073,0.644l-0.706,1.439
			C107.83,14.339,107.196,14.027,106.517,13.857z"/>
		<path fill="#313131" d="M116.999,18.403c-0.167-0.633-0.6-1.104-1.301-1.41s-1.382-0.316-2.042-0.029
			c-0.66,0.286-1.168,0.836-1.523,1.648l-2.227,5.092l-1.514-0.662l3.922-8.966l1.514,0.662l-0.371,0.847
			c0.504-0.197,1.027-0.281,1.57-0.253c0.542,0.028,1.041,0.142,1.494,0.34c0.992,0.435,1.667,1.143,2.027,2.125
			s0.274,2.081-0.257,3.295l-2.306,5.271l-1.513-0.661l2.227-5.093C117.064,19.771,117.165,19.036,116.999,18.403z"/>
	</g>
	<path fill="#313131" stroke="#000000" stroke-width="3" stroke-miterlimit="10" d="M181.796,37.288"/>
	<path fill="#313131" stroke="#000000" stroke-width="3" stroke-miterlimit="10" d="M0,52.156"/>
	<path fill="#313131" stroke="#000000" stroke-width="3" stroke-miterlimit="10" d="M181.796,90.87"/>
	<path fill="#313131" stroke="#000000" stroke-width="3" stroke-miterlimit="10" d="M0.317,105.871"/>
	<g>
		<g>
			<g>
				<path fill="#313131" d="M0.971,92.43c0-9.069,0-18.137,0-27.206c0-5.889,3.549-9.842,9.069-10.105
					c5.389-0.261,8.873,3.102,8.873,9.187c0,1.396,0,2.79,0,4.186c-1.096,0.068-2.191,0.134-3.287,0.197c0-1.373,0-2.746,0-4.12
					c0-4.514-1.906-6.489-5.521-6.312c-3.286,0.157-5.651,2.728-5.651,6.849c0,9.091,0,18.181,0,27.27
					c0,3.268,1.905,6.475,5.651,6.296c3.747-0.183,5.455-3.363,5.455-6.762c0-1.308,0-2.616,0-3.925
					c1.118-0.063,2.235-0.13,3.353-0.199c0,1.308,0,2.615,0,3.923c0,4.703-2.761,9.805-8.807,10.102
					C4.388,102.082,0.971,97.789,0.971,92.43z"/>
				<path fill="#313131" d="M23.117,93.13c0-7.215,0-14.43,0-21.646c0-4.057,2.563-7.949,7.493-8.337
					c4.534-0.358,7.294,2.987,7.294,7.175c0,7.193,0,14.388,0,21.581c0,4.052-2.431,8.134-7.294,8.521
					C25.943,100.792,23.117,97.445,23.117,93.13z M26.601,71.237c0,7.216,0,14.431,0,21.646c0,2.484,1.314,4.55,4.009,4.338
					c2.694-0.214,3.877-2.409,3.877-5.024c0-7.193,0-14.387,0-21.58c0-2.355-1.117-4.612-3.877-4.394
					C27.915,66.433,26.601,68.621,26.601,71.237z"/>
				<path fill="#313131" d="M53.874,64.349c-1.665,0.171-3.33,0.34-4.995,0.503c0,11.184,0,22.365,0,33.548
					c-1.096,0.107-2.191,0.215-3.287,0.318c0-11.183,0-22.364,0-33.547c-1.687,0.161-3.374,0.317-5.06,0.471
					c0-1.003,0-2.006,0-3.009c4.447-0.402,8.894-0.836,13.341-1.294C53.874,62.343,53.874,63.345,53.874,64.349z"/>
				<path fill="#313131" d="M68.397,62.789c-1.665,0.186-3.33,0.37-4.995,0.551c0,11.184,0,22.365,0,33.549
					c-1.095,0.118-2.19,0.237-3.286,0.354c0-11.183,0-22.366,0-33.548c-1.687,0.18-3.374,0.357-5.061,0.533c0-1.004,0-2.006,0-3.009
					c4.447-0.461,8.894-0.943,13.341-1.439C68.397,60.783,68.397,61.785,68.397,62.789z"/>
				<path fill="#313131" d="M71.025,88.587c0-7.216,0-14.431,0-21.646c0-4.056,2.563-8.068,7.493-8.635
					c4.535-0.521,7.294,2.754,7.294,6.938c0,7.193,0,14.387,0,21.581c0,4.055-2.431,8.196-7.294,8.756
					C73.851,96.118,71.025,92.903,71.025,88.587z M74.509,66.546c0,7.215,0,14.431,0,21.646c0,2.484,1.314,4.494,4.009,4.184
					c2.694-0.311,3.877-2.539,3.877-5.155c0-7.193,0-14.387,0-21.58c0-2.355-1.117-4.579-3.877-4.263
					C75.823,61.689,74.509,63.929,74.509,66.546z"/>
				<path fill="#313131" d="M93.632,56.88c2.213,6.284,4.425,12.567,6.637,18.854c0.942,3.074,1.885,6.149,2.826,9.225
					c-0.241-3.285-0.482-6.572-0.723-9.857c0-6.409,0-12.818,0-19.227c1.161-0.133,2.322-0.266,3.483-0.396
					c0,12.187,0,24.371,0,36.557c-1.073,0.122-2.147,0.243-3.221,0.365c-2.234-6.196-4.469-12.392-6.703-18.587
					c-0.876-2.993-1.753-5.987-2.629-8.98c0.197,3.138,0.394,6.276,0.591,9.414c0,6.387,0,12.773,0,19.161
					c-1.16,0.135-2.322,0.27-3.482,0.403c0-12.185,0-24.371,0-36.557C91.485,57.13,92.558,57.005,93.632,56.88z"/>
				<path fill="#313131" d="M122.22,56.701c-1.666,0.174-3.33,0.351-4.996,0.529c0,11.182,0,22.366,0,33.548
					c-1.095,0.118-2.19,0.237-3.285,0.356c0-11.182,0-22.365,0-33.548c-1.688,0.185-3.374,0.371-5.061,0.561
					c0-1.003,0-2.006,0-3.009c4.447-0.498,8.895-0.982,13.342-1.446C122.22,54.696,122.22,55.698,122.22,56.701z"/>
				<path fill="#313131" d="M134.179,79.448c0,0.022,0,0.044,0,0.065c-1.773,0.166-3.549,0.338-5.322,0.514
					c-0.504,3.232-1.008,6.465-1.512,9.698c-1.139,0.114-2.278,0.229-3.418,0.348c1.885-12.38,3.768-24.755,5.652-37.125
					c1.248-0.124,2.497-0.244,3.745-0.363c1.907,12.005,3.812,24.017,5.718,36.032c-1.139,0.101-2.277,0.204-3.416,0.309
					C135.144,85.766,134.662,82.607,134.179,79.448z M133.72,76.679c-0.264-1.784-0.527-3.568-0.789-5.353
					c-0.482-3.878-0.965-7.756-1.446-11.633c-0.503,3.973-1.007,7.945-1.512,11.918c-0.284,1.838-0.569,3.675-0.854,5.513
					C130.652,76.972,132.186,76.824,133.72,76.679z"/>
				<path fill="#313131" d="M142.459,88.32c0-12.187,0-24.372,0-36.558c1.14-0.097,2.277-0.191,3.417-0.284
					c0,12.187,0,24.372,0,36.557C144.737,88.127,143.599,88.222,142.459,88.32z"/>
				<path fill="#313131" d="M161.649,83.853c0,1.025,0,2.05,0,3.074c-3.768,0.221-7.537,0.477-11.305,0.759
					c0-12.186,0-24.371,0-36.556c1.139-0.086,2.279-0.17,3.418-0.25c0,11.161,0,22.322,0,33.483
					C156.392,84.178,159.021,84.008,161.649,83.853z"/>
				<path fill="#313131" d="M164.474,79.247c0-1.265,0-2.527,0-3.793c1.16-0.063,2.322-0.122,3.484-0.179c0,1.265,0,2.529,0,3.793
					c-0.133,2.559,1.246,4.776,4.008,4.661c2.695-0.11,4.01-2.242,4.01-4.925c0-0.916,0-1.832,0-2.746
					c0-1.766-1.709-2.692-4.141-4.03c-4.141-2.249-7.295-3.966-7.361-7.561c0-2.268,0-4.534,0-6.801
					c0-4.379,2.301-7.854,7.098-8.059c4.338-0.18,6.77,2.966,6.77,7.344c0,1.68,0,3.358,0,5.036
					c-1.096,0.032-2.189,0.067-3.285,0.107c0-1.657,0-3.313,0-4.971c0-2.484-0.986-4.48-3.484-4.378
					c-2.037,0.086-3.549,1.6-3.549,4.738c0,2.223,0,4.447,0,6.67c0.131,1.892,1.906,3.044,4.863,4.691
					c3.156,1.704,6.508,3.444,6.441,6.913c0,0.98,0,1.961,0,2.942c0,4.255-2.367,7.898-7.361,8.101
					C167.628,86.981,164.407,84.027,164.474,79.247z"/>
			</g>
		</g>
	</g>
	<path fill="#313131" d="M99.234,121.484c0.003-0.002,0.004-0.003,0.006-0.006c-0.006-0.002-0.01-0.004-0.015-0.006
		C99.158,121.538,99.16,121.542,99.234,121.484z"/>
	<path fill="#313131" d="M86.59,121.472c-0.005,0.002-0.01,0.004-0.015,0.006c0.002,0.003,0.003,0.004,0.005,0.006
		C86.656,121.542,86.659,121.538,86.59,121.472z"/>
	<g>
		<path fill="#313131" d="M24.162,48.806c2.916-7.899,7.256-15.293,12.924-21.857c12.408-14.371,29.67-23.05,48.605-24.438
			c1.75-0.129,3.523-0.193,5.271-0.193c17.905,0,35.029,6.721,48.217,18.925c4.916,4.55,9.111,9.709,12.513,15.317
			c0.512-0.035,1.021-0.064,1.531-0.098c-3.531-5.952-7.931-11.42-13.119-16.221C126.666,7.803,109.212,0.954,90.962,0.954
			c-1.78,0-3.587,0.066-5.371,0.197C66.292,2.565,48.7,11.41,36.053,26.056c-5.912,6.849-10.412,14.581-13.383,22.846
			C23.167,48.872,23.665,48.838,24.162,48.806z"/>
		<path fill="#313131" d="M158.714,94.771c-2.869,9.113-7.594,17.634-14.026,25.084c-12.407,14.37-29.669,23.049-48.604,24.438
			c-1.752,0.128-3.525,0.193-5.271,0.193c-17.907,0-35.031-6.722-48.217-18.924c-5.801-5.369-10.6-11.584-14.273-18.385
			c-0.495,0.035-0.99,0.073-1.485,0.107c3.78,7.143,8.767,13.665,14.832,19.277C55.108,139,72.561,145.85,90.812,145.85
			c1.779,0,3.587-0.066,5.371-0.197c19.299-1.414,36.892-10.261,49.538-24.907c6.672-7.727,11.543-16.581,14.45-26.055
			C159.687,94.717,159.2,94.743,158.714,94.771z"/>
	</g>
	<g>
		<path fill="#313131" d="M29.827,48.416c2.673-6.514,6.411-12.624,11.147-18.108C52.486,16.974,68.5,8.923,86.067,7.635
			c1.624-0.119,3.269-0.179,4.891-0.179c16.61,0,32.497,6.234,44.73,17.557c3.897,3.607,7.306,7.628,10.187,11.967
			c1.034-0.079,2.068-0.152,3.105-0.227c-3.167-5.012-6.998-9.635-11.439-13.743C124.802,11.22,108.257,4.728,90.958,4.728
			c-1.688,0-3.4,0.062-5.09,0.187c-18.294,1.34-34.971,9.725-46.958,23.608c-5.235,6.063-9.302,12.858-12.111,20.113
			C27.808,48.567,28.818,48.491,29.827,48.416z"/>
		<path fill="#313131" d="M153.185,95.115c-2.701,7.744-6.865,14.988-12.386,21.382c-11.511,13.333-27.525,21.384-45.092,22.672
			c-1.624,0.118-3.27,0.179-4.891,0.179c-16.611,0-32.496-6.234-44.73-17.557c-4.8-4.442-8.857-9.512-12.098-15.033
			c-1.005,0.079-2.011,0.152-3.017,0.227c3.478,6.199,7.93,11.875,13.262,16.81c12.739,11.79,29.283,18.282,46.583,18.282
			c1.688,0,3.4-0.062,5.09-0.187c18.295-1.341,34.971-9.725,46.959-23.608c6.007-6.959,10.476-14.882,13.271-23.357
			C155.153,94.985,154.169,95.05,153.185,95.115z"/>
	</g>
</g>
</svg>
