<?xml version="1.0" encoding="utf-8"?>
<!-- Generator: Adobe Illustrator 16.0.0, SVG Export Plug-In . SVG Version: 6.00 Build 0)  -->
<!DOCTYPE svg PUBLIC "-//W3C//DTD SVG 1.1//EN" "http://www.w3.org/Graphics/SVG/1.1/DTD/svg11.dtd">
<svg version="1.1" id="Layer_1" xmlns="http://www.w3.org/2000/svg" xmlns:xlink="http://www.w3.org/1999/xlink" x="0px" y="0px"
	 width="216px" height="182px" viewBox="-18.469 -18.167 216 182" enable-background="new -18.469 -18.167 216 182"
	 xml:space="preserve">
<g opacity="0.1">
	<g>
		<path fill="#313131" d="M70.172,124.227c0.451,1.09,0.374,2.275-0.232,3.551c-0.605,1.276-1.468,2.104-2.588,2.483
			c-1.121,0.38-2.471,0.195-4.053-0.557l-2.725-1.293l3.896-8.208l2.818,1.336C68.76,122.239,69.721,123.134,70.172,124.227z
			 M68.526,127.149c0.891-1.878,0.261-3.33-1.893-4.351l-1.385-0.657l-2.67,5.625l1.539,0.73c0.994,0.473,1.868,0.597,2.622,0.373
			C67.491,128.648,68.087,128.074,68.526,127.149z"/>
		<path fill="#313131" d="M70.126,132.689l1.427-5.027c0.365-1.284,0.967-2.167,1.806-2.649c0.839-0.483,1.841-0.559,3.004-0.229
			c1.164,0.331,1.974,0.916,2.433,1.758c0.46,0.844,0.511,1.889,0.157,3.141l-1.449,5.103l-1.488-0.423l0.614-2.163l-4.415-1.254
			l-0.614,2.164L70.126,132.689z M73.048,128.017l-0.44,1.551l4.416,1.254l0.423-1.489c0.229-0.808,0.211-1.488-0.055-2.043
			c-0.267-0.552-0.746-0.927-1.438-1.123c-0.691-0.197-1.292-0.138-1.8,0.179C73.642,126.66,73.275,127.216,73.048,128.017z"/>
		<path fill="#313131" d="M86.66,128.833c-0.323-0.516-0.837-0.812-1.544-0.891c-0.708-0.076-1.312,0.104-1.818,0.542
			c-0.505,0.437-0.802,1.063-0.893,1.882l-0.562,5.13l-1.524-0.167l0.99-9.033l1.525,0.169l-0.093,0.853
			c0.392-0.314,0.833-0.534,1.322-0.659c0.488-0.126,0.961-0.164,1.418-0.113c0.998,0.109,1.794,0.549,2.385,1.32
			c0.592,0.771,0.819,1.768,0.686,2.992l-0.581,5.311l-1.526-0.166l0.562-5.132C87.098,130.028,86.983,129.347,86.66,128.833z"/>
		<path fill="#313131" d="M93.194,128.173c-0.445,0.02-0.807,0.126-1.085,0.32c-0.278,0.195-0.409,0.477-0.393,0.845
			c0.018,0.368,0.173,0.643,0.467,0.825c0.295,0.182,0.912,0.365,1.853,0.549c0.939,0.183,1.656,0.469,2.146,0.853
			c0.49,0.387,0.752,0.977,0.787,1.768c0.035,0.793-0.234,1.449-0.81,1.968c-0.576,0.521-1.349,0.802-2.318,0.845
			c-1.42,0.062-2.701-0.369-3.845-1.3l0.91-1.199c0.953,0.758,1.924,1.113,2.91,1.068c0.494-0.021,0.881-0.146,1.161-0.37
			c0.281-0.226,0.414-0.513,0.397-0.864c-0.016-0.35-0.164-0.618-0.445-0.8c-0.281-0.183-0.759-0.339-1.433-0.47
			s-1.187-0.256-1.54-0.374c-0.352-0.118-0.666-0.28-0.944-0.484c-0.556-0.384-0.853-0.995-0.888-1.835
			c-0.037-0.84,0.239-1.501,0.829-1.982c0.592-0.481,1.337-0.743,2.237-0.782c0.579-0.026,1.16,0.044,1.738,0.209
			c0.58,0.165,1.086,0.411,1.517,0.738l-0.768,1.193c-0.278-0.23-0.652-0.414-1.117-0.551
			C94.096,128.21,93.641,128.154,93.194,128.173z"/>
		<path fill="#313131" d="M101.047,127.359c-1.118,0.198-1.617,0.629-1.5,1.297c0.154,0.861,0.942,1.166,2.367,0.913l1.217-0.216
			l0.24,1.355c-0.537,0.096-0.966,0.173-1.286,0.229c-0.321,0.057-0.602,0.115-0.841,0.175c-0.241,0.061-0.417,0.116-0.532,0.166
			c-0.114,0.052-0.253,0.127-0.415,0.228c-0.163,0.099-0.278,0.203-0.348,0.312c-0.177,0.286-0.237,0.602-0.176,0.942
			c0.153,0.861,0.938,1.167,2.354,0.916c0.444-0.079,0.867-0.209,1.271-0.391c0.403-0.183,0.712-0.365,0.925-0.555l0.651,1.284
			c-0.718,0.568-1.635,0.951-2.748,1.148c-1.113,0.196-2.021,0.117-2.724-0.244c-0.702-0.359-1.13-0.975-1.284-1.845
			c-0.177-0.989,0.185-1.807,1.083-2.451c-0.778-0.362-1.242-0.972-1.394-1.825c-0.122-0.691,0.061-1.305,0.552-1.841
			c0.49-0.535,1.213-0.889,2.168-1.058c0.393-0.069,0.821-0.101,1.284-0.097c0.463,0.005,0.848,0.053,1.153,0.139l-0.053,1.488
			C102.342,127.27,101.688,127.247,101.047,127.359z"/>
		<path fill="#313131" d="M104.235,125.447l1.457-0.48l1.386,4.211l2.565-5.513l1.853-0.609l-2.227,4.92l5.117,3.695l-1.729,0.569
			l-4.108-2.836l-0.812,1.773l0.796,2.42l-1.456,0.48L104.235,125.447z"/>
		<path fill="#313131" d="M115.981,130.914l-3.942-8.188l1.383-0.665l3.31,6.875l3.736-1.799l0.633,1.312L115.981,130.914z"/>
		<path fill="#313131" d="M123.431,124.588c0.617,0.169,1.22,0.055,1.808-0.345c0.588-0.397,0.919-0.914,0.991-1.55
			c0.073-0.635-0.124-1.297-0.591-1.985l-2.817-4.167l1.27-0.858l5.092,7.525l-1.271,0.859l-0.474-0.7
			c-0.181,0.876-0.646,1.567-1.393,2.072c-0.933,0.632-1.896,0.855-2.887,0.673c-0.991-0.181-1.854-0.813-2.587-1.898l-2.855-4.222
			l1.27-0.858l2.818,4.166C122.274,123.991,122.816,124.42,123.431,124.588z"/>
		<path fill="#313131" d="M134.347,118.614l-2.895,2.729l-6.234-6.61l2.572-2.427c0.448-0.422,0.885-0.731,1.311-0.932
			c0.426-0.198,0.804-0.281,1.134-0.246c0.623,0.055,1.138,0.298,1.542,0.727c0.486,0.517,0.686,1.056,0.596,1.618
			c-0.036,0.201-0.066,0.333-0.09,0.396s-0.068,0.174-0.134,0.332c0.493-0.299,0.992-0.422,1.5-0.371
			c0.506,0.053,0.958,0.286,1.35,0.702c0.434,0.461,0.659,1.016,0.677,1.665C135.693,116.958,135.248,117.764,134.347,118.614z
			 M128.921,116.421l1.42-1.337c0.807-0.762,0.951-1.417,0.436-1.965c-0.299-0.315-0.609-0.45-0.936-0.404s-0.695,0.263-1.104,0.648
			l-1.431,1.345L128.921,116.421z M131.596,119.259l1.75-1.649c0.41-0.387,0.663-0.746,0.758-1.082
			c0.096-0.334-0.026-0.681-0.365-1.04c-0.553-0.586-1.3-0.437-2.239,0.448l-1.607,1.518L131.596,119.259z"/>
		<path fill="#313131" d="M140.714,111.467l-2.444,3.139l-7.17-5.584l2.174-2.79c0.379-0.487,0.763-0.859,1.153-1.12
			c0.39-0.262,0.752-0.4,1.083-0.418c0.625-0.04,1.17,0.12,1.634,0.483c0.561,0.438,0.839,0.938,0.836,1.507
			c-0.005,0.205-0.015,0.341-0.028,0.407c-0.014,0.067-0.041,0.184-0.082,0.35c0.441-0.371,0.917-0.569,1.427-0.596
			c0.509-0.025,0.989,0.136,1.44,0.488c0.499,0.39,0.807,0.903,0.924,1.544C141.79,109.626,141.475,110.49,140.714,111.467z
			 M135.017,110.128l1.198-1.539c0.682-0.876,0.726-1.545,0.131-2.008c-0.341-0.267-0.67-0.353-0.986-0.259
			c-0.315,0.095-0.646,0.364-0.992,0.809l-1.207,1.548L135.017,110.128z M138.095,112.526l1.477-1.898
			c0.347-0.444,0.541-0.839,0.585-1.184c0.044-0.348-0.131-0.671-0.519-0.974c-0.636-0.495-1.351-0.233-2.145,0.785L136.134,111
			L138.095,112.526z"/>
	</g>
	<g>
		<path fill="#313131" d="M59.375,30.588l-3.417,2.584l-5.903-7.803l3.037-2.298c0.529-0.4,1.033-0.682,1.511-0.844
			c0.479-0.164,0.893-0.208,1.243-0.133c0.661,0.131,1.184,0.451,1.566,0.956c0.463,0.61,0.613,1.211,0.45,1.801
			c-0.063,0.211-0.11,0.349-0.143,0.416c-0.032,0.066-0.093,0.179-0.182,0.339c0.563-0.261,1.113-0.335,1.65-0.22
			c0.537,0.114,0.992,0.417,1.363,0.908c0.411,0.543,0.589,1.165,0.532,1.863C61.007,28.972,60.438,29.784,59.375,30.588z
			 M53.821,27.61l1.675-1.266c0.952-0.72,1.184-1.406,0.694-2.052c-0.283-0.373-0.601-0.554-0.955-0.542
			c-0.355,0.011-0.775,0.2-1.258,0.565l-1.686,1.275L53.821,27.61z M56.355,30.959l2.065-1.562c0.484-0.367,0.797-0.723,0.938-1.07
			c0.142-0.347,0.051-0.733-0.269-1.157c-0.523-0.692-1.34-0.619-2.449,0.22l-1.897,1.436L56.355,30.959z"/>
		<path fill="#313131" d="M62.591,18.737c-1.08,0.573-1.449,1.181-1.108,1.825c0.442,0.833,1.352,0.884,2.729,0.153l1.175-0.624
			l0.695,1.311c-0.52,0.275-0.934,0.496-1.243,0.66c-0.31,0.163-0.576,0.316-0.803,0.458c-0.226,0.141-0.39,0.257-0.489,0.347
			c-0.1,0.09-0.217,0.213-0.351,0.369s-0.219,0.301-0.254,0.435c-0.087,0.354-0.044,0.694,0.132,1.023
			c0.442,0.833,1.346,0.887,2.715,0.159c0.429-0.228,0.82-0.501,1.173-0.821c0.354-0.318,0.609-0.611,0.766-0.874l1.09,1.101
			c-0.547,0.819-1.359,1.513-2.436,2.085s-2.033,0.789-2.871,0.653c-0.838-0.137-1.481-0.625-1.927-1.465
			c-0.506-0.957-0.407-1.913,0.3-2.87c-0.917-0.116-1.594-0.586-2.032-1.409c-0.354-0.669-0.369-1.358-0.044-2.069
			c0.326-0.711,0.95-1.312,1.873-1.802c0.379-0.201,0.807-0.375,1.284-0.522c0.477-0.148,0.886-0.228,1.228-0.24l0.438,1.543
			C63.889,18.218,63.209,18.41,62.591,18.737z"/>
		<path fill="#313131" d="M75.52,15.523c0.518,1.528,0.178,2.718-1.022,3.57l3.569,2.543l-1.989,0.675l-3.271-2.365l-2.055,0.697
			l1.058,3.115l-1.564,0.531L67.1,15.023l3.447-1.169c1.415-0.479,2.508-0.584,3.28-0.313C74.597,13.812,75.162,14.472,75.52,15.523
			z M73.883,17.542c0.226-0.381,0.235-0.875,0.029-1.481c-0.205-0.605-0.51-0.966-0.913-1.081c-0.403-0.113-1.025-0.029-1.864,0.256
			l-1.99,0.674l1.125,3.314l1.949-0.662C73.103,18.265,73.658,17.923,73.883,17.542z"/>
		<path fill="#313131" d="M82.461,12.43c-0.979,0.146-1.754,0.586-2.323,1.318c-0.57,0.731-0.777,1.616-0.622,2.655
			c0.155,1.039,0.561,1.819,1.215,2.345c0.655,0.525,1.479,0.712,2.471,0.564c0.992-0.149,1.748-0.664,2.267-1.543l-0.288-1.924
			l1.633-0.245l0.701,4.666L85.88,20.51l-0.123-0.816c-0.694,0.661-1.507,1.061-2.438,1.201c-1.412,0.213-2.628-0.081-3.65-0.876
			c-1.02-0.795-1.64-1.917-1.856-3.366c-0.217-1.449,0.093-2.728,0.933-3.835c0.838-1.107,1.956-1.765,3.349-1.974
			c1.392-0.209,2.613,0.023,3.657,0.697l-0.684,1.377c-0.427-0.265-0.841-0.433-1.243-0.5C83.424,12.35,82.968,12.354,82.461,12.43z
			"/>
		<path fill="#313131" d="M92.618,11.867c-1.223-0.02-1.84,0.334-1.852,1.062c-0.016,0.941,0.757,1.427,2.314,1.451l1.329,0.021
			l-0.023,1.484c-0.588-0.01-1.058-0.018-1.407-0.024c-0.351-0.006-0.658,0-0.925,0.013c-0.267,0.015-0.465,0.038-0.596,0.068
			c-0.131,0.031-0.293,0.082-0.485,0.153s-0.337,0.158-0.432,0.258c-0.247,0.267-0.374,0.587-0.379,0.96
			c-0.015,0.943,0.752,1.428,2.301,1.452c0.485,0.008,0.96-0.042,1.424-0.151c0.465-0.109,0.828-0.241,1.092-0.395l0.424,1.49
			c-0.876,0.453-1.923,0.669-3.141,0.648c-1.219-0.019-2.161-0.291-2.829-0.817c-0.668-0.523-0.993-1.262-0.978-2.214
			c0.018-1.083,0.568-1.872,1.65-2.368c-0.747-0.544-1.113-1.283-1.098-2.217c0.013-0.755,0.333-1.367,0.961-1.831
			c0.629-0.467,1.465-0.69,2.512-0.674c0.429,0.007,0.888,0.062,1.376,0.163c0.489,0.102,0.887,0.229,1.191,0.384l-0.361,1.562
			C94.007,12.039,93.318,11.878,92.618,11.867z"/>
		<path fill="#313131" d="M103.859,13.919c-0.307-0.579-0.835-0.939-1.587-1.079s-1.418,0.005-1.995,0.434
			c-0.578,0.428-0.949,1.079-1.11,1.951l-1.015,5.464l-1.626-0.302l1.789-9.622l1.625,0.301l-0.17,0.909
			c0.446-0.306,0.937-0.506,1.472-0.602c0.534-0.096,1.046-0.097,1.532-0.007c1.064,0.199,1.883,0.736,2.456,1.61
			s0.737,1.965,0.496,3.268l-1.052,5.656l-1.623-0.301l1.016-5.465C104.231,15.237,104.163,14.499,103.859,13.919z"/>
	</g>
	<path fill="#313131" stroke="#000000" stroke-width="3" stroke-miterlimit="10" d="M171.249,17.631"/>
	<path fill="#313131" stroke="#000000" stroke-width="3" stroke-miterlimit="10" d="M-2.449,73.305"/>
	<path fill="#313131" stroke="#000000" stroke-width="3" stroke-miterlimit="10" d="M183.39,69.82"/>
	<path fill="#313131" stroke="#000000" stroke-width="3" stroke-miterlimit="10" d="M10.03,125.55"/>
	<g>
		<g>
			<g>
				<path fill="#313131" d="M7.621,112.312c-2.055-8.834-4.11-17.666-6.165-26.499c-1.334-5.736,1.227-10.391,6.544-11.897
					c5.189-1.475,9.345,1.012,10.724,6.938c0.316,1.36,0.632,2.718,0.949,4.078c-1.053,0.314-2.104,0.626-3.157,0.936
					c-0.311-1.337-0.622-2.674-0.934-4.013c-1.022-4.396-3.327-5.888-6.808-4.896c-3.166,0.897-4.886,3.938-3.952,7.951
					c2.06,8.854,4.119,17.708,6.179,26.562c0.74,3.183,3.322,5.874,6.93,4.851c3.608-1.027,4.551-4.511,3.781-7.822
					c-0.296-1.273-0.592-2.547-0.889-3.822c1.075-0.315,2.148-0.633,3.222-0.953c0.296,1.272,0.592,2.546,0.888,3.82
					c1.066,4.58-0.468,10.176-6.289,11.835C13.136,120.938,8.835,117.531,7.621,112.312z"/>
				<path fill="#313131" d="M29.35,107.975c-1.635-7.026-3.27-14.054-4.905-21.083c-0.919-3.952,0.695-8.322,5.408-9.817
					c4.335-1.376,7.781,1.256,8.73,5.336c1.629,7.005,3.26,14.014,4.89,21.019c0.918,3.946-0.524,8.474-5.174,9.952
					C33.838,114.798,30.328,112.177,29.35,107.975z M27.782,85.862c1.635,7.028,3.27,14.056,4.905,21.083
					c0.563,2.42,2.311,4.135,4.887,3.317c2.576-0.818,3.23-3.225,2.638-5.772c-1.63-7.006-3.26-14.013-4.89-21.018
					c-0.533-2.295-2.132-4.24-4.771-3.401C27.974,80.885,27.19,83.314,27.782,85.862z"/>
				<path fill="#313131" d="M52.786,72.974c-1.583,0.544-3.167,1.085-4.751,1.622c2.535,10.894,5.067,21.783,7.602,32.676
					c-1.043,0.353-2.085,0.705-3.129,1.055c-2.534-10.893-5.067-21.782-7.601-32.675c-1.607,0.539-3.215,1.073-4.821,1.605
					c-0.228-0.978-0.455-1.954-0.682-2.932c4.24-1.398,8.473-2.829,12.701-4.283C52.331,71.02,52.558,71.996,52.786,72.974z"/>
				<path fill="#313131" d="M66.577,68.164c-1.58,0.559-3.16,1.115-4.741,1.668c2.534,10.893,5.068,21.783,7.602,32.676
					c-1.04,0.363-2.079,0.728-3.12,1.09c-2.534-10.893-5.068-21.785-7.602-32.676c-1.603,0.558-3.206,1.112-4.809,1.667
					c-0.228-0.978-0.455-1.954-0.682-2.931c4.227-1.457,8.449-2.934,12.668-4.424C66.123,66.21,66.35,67.186,66.577,68.164z"/>
				<path fill="#313131" d="M74.982,92.696c-1.635-7.029-3.27-14.057-4.905-21.084c-0.919-3.95,0.669-8.438,5.342-10.108
					c4.299-1.535,7.729,1.03,8.676,5.105c1.63,7.006,3.26,14.012,4.89,21.021c0.919,3.949-0.51,8.532-5.12,10.181
					C79.442,99.39,75.96,96.899,74.982,92.696z M73.382,70.438c1.635,7.027,3.27,14.056,4.905,21.083
					c0.562,2.419,2.299,4.079,4.853,3.167c2.554-0.914,3.201-3.352,2.608-5.899c-1.63-7.006-3.26-14.013-4.89-21.019
					c-0.534-2.293-2.126-4.207-4.742-3.273C73.562,65.409,72.789,67.889,73.382,70.438z"/>
				<path fill="#313131" d="M89.817,56.69c3.58,5.62,7.158,11.238,10.736,16.86c1.615,2.781,3.229,5.562,4.844,8.344
					c-0.979-3.145-1.959-6.291-2.938-9.436c-1.452-6.243-2.904-12.484-4.356-18.727c1.101-0.393,2.2-0.785,3.302-1.175
					c2.762,11.87,5.522,23.737,8.283,35.606c-1.017,0.361-2.035,0.723-3.054,1.085c-3.581-5.529-7.161-11.057-10.741-16.584
					c-1.531-2.717-3.063-5.434-4.595-8.151c0.903,3.012,1.806,6.023,2.708,9.035c1.447,6.221,2.895,12.441,4.342,18.664
					c-1.099,0.395-2.2,0.789-3.299,1.181c-2.762-11.868-5.522-23.737-8.284-35.606C87.782,57.42,88.799,57.055,89.817,56.69z"/>
				<path fill="#313131" d="M117.621,50.039c-1.584,0.547-3.164,1.096-4.746,1.647c2.533,10.891,5.067,21.785,7.601,32.675
					c-1.039,0.363-2.078,0.728-3.118,1.092c-2.534-10.891-5.068-21.784-7.602-32.676c-1.602,0.562-3.202,1.126-4.802,1.693
					c-0.228-0.977-0.455-1.954-0.683-2.931c4.219-1.493,8.441-2.972,12.668-4.432C117.166,48.085,117.394,49.062,117.621,50.039z"/>
				<path fill="#313131" d="M134.423,69.485c0.005,0.021,0.01,0.042,0.015,0.062c-1.688,0.563-3.38,1.133-5.067,1.707
					c0.242,3.262,0.483,6.525,0.726,9.789c-1.084,0.369-2.167,0.739-3.25,1.114c-0.97-12.486-1.94-24.966-2.907-37.441
					c1.188-0.404,2.377-0.804,3.565-1.203c4.577,11.261,9.154,22.529,13.733,33.799c-1.087,0.357-2.172,0.715-3.257,1.075
					C136.794,75.419,135.61,72.451,134.423,69.485z M133.349,66.891c-0.661-1.678-1.322-3.356-1.981-5.035
					c-1.348-3.668-2.697-7.336-4.045-11.003c0.41,3.984,0.82,7.967,1.229,11.951c0.14,1.855,0.278,3.709,0.418,5.563
					C130.427,67.872,131.887,67.379,133.349,66.891z"/>
				<path fill="#313131" d="M144.498,76.249c-2.762-11.87-5.522-23.737-8.283-35.606c1.088-0.353,2.174-0.702,3.264-1.051
					c2.762,11.87,5.522,23.738,8.283,35.606C146.672,75.544,145.586,75.896,144.498,76.249z"/>
				<path fill="#313131" d="M162.177,67.55c0.231,0.999,0.464,1.997,0.696,2.994c-3.62,1.069-7.233,2.172-10.839,3.301
					c-2.762-11.87-5.522-23.737-8.283-35.605c1.09-0.342,2.182-0.682,3.272-1.018c2.529,10.871,5.058,21.742,7.587,32.612
					C157.13,69.057,159.652,68.296,162.177,67.55z"/>
				<path fill="#313131" d="M163.885,62.424c-0.287-1.233-0.573-2.461-0.859-3.694c1.115-0.325,2.233-0.646,3.353-0.964
					c0.287,1.232,0.573,2.463,0.859,3.694c0.45,2.522,2.296,4.369,4.96,3.632c2.601-0.718,3.397-3.093,2.79-5.706
					c-0.208-0.892-0.416-1.784-0.623-2.675c-0.399-1.719-2.274-2.234-4.946-2.987c-4.543-1.252-8.003-2.21-8.883-5.697
					c-0.514-2.208-1.027-4.416-1.541-6.624c-0.992-4.265,0.462-8.171,5.087-9.458c4.186-1.159,7.267,1.355,8.259,5.619
					c0.381,1.636,0.761,3.271,1.141,4.905c-1.06,0.28-2.117,0.562-3.175,0.849c-0.376-1.614-0.751-3.227-1.126-4.842
					c-0.563-2.419-1.977-4.14-4.386-3.475c-1.964,0.545-3.095,2.362-2.384,5.419c0.504,2.166,1.008,4.332,1.512,6.497
					c0.556,1.813,2.546,2.533,5.8,3.467c3.46,0.945,7.119,1.88,7.84,5.274c0.223,0.954,0.444,1.91,0.667,2.865
					c0.964,4.145-0.517,8.229-5.334,9.559C168.709,69.242,164.903,67.094,163.885,62.424z"/>
			</g>
		</g>
	</g>
	<path fill="#313131" d="M109.911,118.344c0.003-0.002,0.003-0.003,0.006-0.007c-0.008,0-0.012-0.001-0.017-0.002
		C109.851,118.415,109.854,118.418,109.911,118.344z"/>
	<path fill="#313131" d="M97.594,121.198c-0.004,0.003-0.009,0.007-0.013,0.01c0.003,0.002,0.004,0.003,0.006,0.004
		C97.675,121.251,97.677,121.248,97.594,121.198z"/>
	<g>
		<path fill="#313131" d="M20.325,64.567c1.05-8.354,3.602-16.54,7.635-24.217c8.829-16.809,23.675-29.174,41.803-34.816
			c1.675-0.522,3.388-0.986,5.091-1.382c17.439-4.057,35.642-1.391,51.251,7.508c5.819,3.317,11.074,7.392,15.658,12.083
			c0.491-0.15,0.98-0.293,1.469-0.442c-4.788-4.997-10.312-9.326-16.453-12.826c-15.906-9.07-34.458-11.786-52.234-7.651
			c-1.734,0.404-3.479,0.877-5.187,1.409c-18.477,5.75-33.607,18.352-42.606,35.482c-4.207,8.01-6.837,16.561-7.858,25.284
			C19.371,64.857,19.848,64.711,20.325,64.567z"/>
		<path fill="#313131" d="M161.792,78.849c-0.729,9.526-3.4,18.896-7.978,27.609c-8.828,16.808-23.675,29.172-41.803,34.815
			c-1.677,0.522-3.39,0.987-5.091,1.383c-17.44,4.057-35.642,1.391-51.25-7.507c-6.867-3.915-12.949-8.881-18.067-14.673
			c-0.474,0.146-0.948,0.295-1.422,0.441c5.3,6.101,11.635,11.322,18.814,15.414c15.907,9.07,34.458,11.788,52.234,7.653
			c1.733-0.403,3.479-0.877,5.187-1.409c18.477-5.75,33.608-18.354,42.606-35.484c4.747-9.037,7.485-18.765,8.171-28.651
			C162.727,78.576,162.26,78.712,161.792,78.849z"/>
	</g>
	<g>
		<path fill="#313131" d="M25.754,62.904c1.127-6.951,3.383-13.748,6.754-20.163C40.699,27.146,54.473,15.675,71.29,10.44
			c1.555-0.483,3.144-0.915,4.724-1.282c16.177-3.764,33.064-1.292,47.544,6.965c4.613,2.63,8.845,5.774,12.634,9.347
			c0.989-0.312,1.979-0.616,2.973-0.924c-4.221-4.164-8.999-7.799-14.255-10.794C109.83,5.155,92.245,2.581,75.396,6.5
			c-1.645,0.383-3.298,0.831-4.915,1.335c-17.515,5.45-31.859,17.396-40.388,33.634c-3.725,7.092-6.147,14.631-7.239,22.334
			C23.822,63.508,24.788,63.206,25.754,62.904z"/>
		<path fill="#313131" d="M156.485,80.437c-0.876,8.154-3.291,16.153-7.219,23.633c-8.19,15.594-21.964,27.063-38.781,32.3
			c-1.556,0.481-3.146,0.915-4.725,1.282c-16.178,3.764-33.063,1.292-47.544-6.966c-5.682-3.238-10.783-7.258-15.19-11.901
			c-0.961,0.306-1.924,0.604-2.887,0.905c4.793,5.25,10.414,9.77,16.726,13.367c15.08,8.599,32.665,11.173,49.515,7.253
			c1.645-0.383,3.297-0.831,4.916-1.336c17.515-5.452,31.857-17.396,40.388-33.634c4.274-8.139,6.831-16.869,7.633-25.757
			C158.371,79.865,157.429,80.151,156.485,80.437z"/>
	</g>
</g>
</svg>
